# xmcd
#
# Track frame offsets:
#	150
#	17434
#	34597
#	53845
#	70668
#	85619
#	104251
#	120728
#	136770
#	154270
#	168046
#	184038
#	203208
#	218485
#
# Disc length: 3136 seconds
#
# Revision: 0
# Processed by: cddbd v1.5.2PL0 Copyright (c) Steve Scherf et al.
# Submitted via: EasyCDDAExtractor 11.9.9.666
#
DISCID=a80c3e0e
DTITLE=Noli - Viva e deixe viver - volume 2
DYEAR=2008
DGENRE=Sertanejo diferente
TTITLE0=Vira virou
TTITLE1=Taça de pranto
TTITLE2=Hoje eu não posso ir
TTITLE3=Nuvem de lágrimas
TTITLE4=Uma estrela
TTITLE5=Basta um olhar
TTITLE6=Bye bye
TTITLE7=O melhor do amor é amar
TTITLE8=De bota não entra no céu
TTITLE9=Vento
TTITLE10=Vida de cowboy
TTITLE11=Olhos da lua
TTITLE12=Vai, vai, vai
TTITLE13=Caso marcado - ao vivo
EXTD=
EXTT0=
EXTT1=
EXTT2=
EXTT3=
EXTT4=
EXTT5=
EXTT6=
EXTT7=
EXTT8=
EXTT9=
EXTT10=
EXTT11=
EXTT12=
EXTT13=
PLAYORDER=
